<svg width="822" height="101" viewBox="0 0 822 101" fill="none" xmlns="http://www.w3.org/2000/svg">
<path d="M92.8798 77.5552H48.8798C33.1868 77.5552 21.1868 74.3254 12.8798 67.8667C4.57306 61.4071 0.410866 51.8342 0.393066 39.1491C0.393066 26.5226 4.55526 16.9667 12.8798 10.4795C21.2038 3.99228 33.2038 0.78204 48.8798 0.84968L91.6668 1.08644V14.6269H50.1998C39.8978 14.6269 32.2488 16.5671 27.2528 20.4475C22.2578 24.3279 19.7618 30.5695 19.7668 39.1731C19.7668 47.7803 22.2618 54.0379 27.2528 57.9459C32.2438 61.8539 39.8928 63.8136 50.1998 63.8261H92.8668L92.8798 77.5552ZM251.973 77.5552H210.96C200.338 77.5552 192.056 75.2083 186.113 70.5127C180.171 65.817 177.2 58.9249 177.2 49.8353C177.2 40.6701 180.171 33.7477 186.113 29.068C192.056 24.3893 200.338 22.045 210.96 22.037H250.787V34.2069H210.96C205.813 34.2069 201.867 35.476 199.12 38.0161C196.373 40.5553 195.011 44.5104 195.033 49.8825C195.033 55.1753 196.396 59.0913 199.12 61.6304C201.844 64.1696 205.791 65.4397 210.96 65.4397H251.973V77.5552ZM278.107 77.0275H260.867V1.37747H278.107V22.5417H314.247C321.22 22.5417 326.316 24.0725 329.533 27.1341C332.751 30.1957 334.351 34.2363 334.333 39.2559V77.0337H317.1V41.0536C317.1 36.8208 314.722 34.7053 309.967 34.7053H278.107V77.0275ZM363 55.5491H407.94C415.113 55.5491 420.491 54.1642 424.073 51.3954C427.656 48.6267 429.449 44.473 429.453 38.9354C429.453 33.5002 427.615 29.3172 423.94 26.3865C420.264 23.4557 414.931 21.9934 407.94 22.0014H378.207C367.58 22.0014 359.298 24.343 353.36 29.0271C350.369 31.4069 348.08 34.4036 346.693 37.7544C345.125 41.6241 344.368 45.7164 344.46 49.8291C344.46 58.9266 347.433 65.8197 353.38 70.5064C359.327 75.1941 367.609 77.5419 378.227 77.5499H426.333V65.3862H378.207C369.722 65.3898 364.653 62.1111 363 55.5491ZM378.22 34.1891H407.107C408.807 34.1891 410.087 34.5629 410.94 35.298C411.793 36.0341 412.22 37.1492 412.22 38.6329C412.309 39.9082 411.83 41.164 410.887 42.1279C410.393 42.5578 409.805 42.8924 409.159 43.1104C408.513 43.3276 407.823 43.4237 407.133 43.3917H363.133C365.018 37.248 370.042 34.1766 378.207 34.1766L378.22 34.1891ZM523.12 77.0337H441.927V1.37747H460.947V63.2743H523.12V77.0337ZM611.453 29.0387C605.507 24.359 597.224 22.0174 586.607 22.0139H564.607C553.989 22.0139 545.707 24.3555 539.76 29.0387C536.773 31.4221 534.485 34.4178 533.093 37.7669C531.534 41.6375 530.78 45.7288 530.867 49.8406C530.867 58.9391 533.84 65.8312 539.787 70.5189C545.733 75.2056 554.015 77.5535 564.633 77.5615H586.633C597.251 77.5615 605.533 75.2136 611.48 70.5189C614.459 68.1488 616.747 65.1691 618.147 61.8378C619.705 57.993 620.46 53.9275 620.373 49.8406C620.369 40.6763 617.396 33.7396 611.453 29.0324V29.0387ZM598.42 61.6064C595.691 64.1465 591.753 65.4156 586.607 65.4156H564.607C559.455 65.4156 555.507 64.1465 552.76 61.6064C551.33 60.226 550.28 58.5689 549.693 56.7648C548.969 54.5211 548.626 52.1929 548.673 49.8584C548.673 44.5033 550.036 40.5472 552.76 37.9921C555.484 35.4369 559.433 34.1668 564.607 34.1828H586.607C591.753 34.1828 595.691 35.4529 598.42 37.9921C599.865 39.3742 600.923 41.0421 601.507 42.8577C602.237 45.1272 602.583 47.4804 602.533 49.8406C602.533 55.1299 601.162 59.0512 598.42 61.6064ZM662.42 22.5657C651.798 22.5657 643.516 24.8913 637.573 29.5433C634.604 31.8778 632.316 34.8201 630.907 38.1167C629.348 41.8725 628.593 45.8552 628.68 49.8584C628.68 58.6757 631.651 65.4121 637.593 70.0677C643.536 74.7232 651.813 77.0452 662.427 77.0337H688.58V82.2188C688.58 86.5229 686.202 88.6749 681.447 88.6749H645.547V100.838H685.727C692.62 100.838 697.693 99.3095 700.947 96.2515C704.2 93.1934 705.824 89.151 705.82 84.1234V22.5417L662.42 22.5657ZM688.573 64.8816H662.42C657.264 64.8816 653.324 63.6276 650.6 61.1205C649.175 59.7926 648.118 58.1879 647.513 56.4328C646.787 54.3031 646.441 52.0843 646.487 49.8584C646.487 44.7801 647.858 40.986 650.6 38.4789C653.342 35.9709 657.282 34.7204 662.42 34.7284H688.573V64.8816ZM736.133 77.0337H718.9V22.5417H736.133V77.0337ZM736.253 13.5464H718.78V1.59106H736.253V13.5464ZM821.587 77.5552H780.6C769.982 77.5552 761.7 75.2083 755.753 70.5127C749.807 65.817 746.833 58.9249 746.833 49.8353C746.833 40.6701 749.807 33.7477 755.753 29.068C761.7 24.3893 769.982 22.045 780.6 22.037H820.42V34.2069H780.6C775.444 34.2069 771.496 35.476 768.753 38.0161C766.011 40.5553 764.649 44.5104 764.667 49.8825C764.667 55.1753 766.029 59.0913 768.753 61.6304C771.478 64.1696 775.427 65.4397 780.6 65.4397H821.613L821.587 77.5552Z" fill="white"/>
</svg>
